<?xml version="1.0" encoding="UTF-8"?>
<svg width="32px" height="32px" viewBox="0 0 32 32" version="1.1" xmlns="http://www.w3.org/2000/svg" xmlns:xlink="http://www.w3.org/1999/xlink">
    <defs></defs>
    <g id="onboarding-v4" stroke="none" stroke-width="1" fill="none" fill-rule="evenodd">
        <g id="goals" transform="translate(-483.000000, -689.000000)">
            <g id="hint" transform="translate(483.000000, 689.000000)">
                <g id="infinity">
                    <circle id="Oval" fill="#2A73CC" cx="16" cy="16" r="16"></circle>
                    <path d="M25.5555556,15.6402878 C25.5555556,14.8129496 25.1644444,14.0215827 24.7022222,13.3381295 C24.4888889,13.0143885 24.24,12.7266187 23.9911111,12.4748201 C23.6,12.1151079 23.1377778,11.7913669 22.64,11.5395683 C21.8933333,11.1798561 21.04,11 20.1511111,11 L19.8666667,11 C19.2266667,11.0359712 18.6222222,11.1438849 18.0533333,11.3597122 C17.4844444,11.5755396 16.9866667,11.8633094 16.56,12.1870504 C16.4888889,12.2589928 16.3822222,12.3309353 16.2755556,12.4388489 L16.2044444,12.4388489 L16.1333333,12.5467626 L16.0977778,12.618705 L15.9911111,12.7625899 C15.92,12.8705036 15.8133333,12.9784173 15.7422222,13.0503597 C15.6,13.2302158 15.4577778,13.4460432 15.3511111,13.6258993 C15.28,13.7338129 15.2088889,13.8417266 15.1377778,13.9856115 L14.1777778,15.8920863 L14.1422222,16 L14.0355556,16.2158273 C13.8222222,16.647482 13.6088889,17.0431655 13.36,17.4028777 C12.8266667,18.0143885 12.1866667,18.3021583 11.4044444,18.3021583 L11.2266667,18.3021583 C10.7644444,18.2661871 10.3377778,18.1582734 9.98222222,17.942446 C9.94666667,17.9064748 9.91111111,17.9064748 9.87555556,17.8705036 C9.59111111,17.6546763 9.34222222,17.4028777 9.2,17.0791367 C9.02222222,16.7194245 8.91555556,16.3597122 8.95111111,15.9640288 L8.95111111,15.9280576 C8.98666667,15.3165468 9.2,14.8129496 9.69777778,14.4172662 C9.80444444,14.3093525 9.94666667,14.2374101 10.0533333,14.1654676 C10.0888889,14.1654676 10.0888889,14.1294964 10.0888889,14.1294964 C10.4444444,13.9496403 10.8355556,13.8417266 11.2977778,13.8417266 L11.44,13.8417266 C12.1866667,13.8776978 12.72,14.0935252 13.1822222,14.5611511 L14.6044444,12.0071942 C14.2844444,11.7913669 13.8933333,11.5755396 13.4666667,11.4316547 C13.4666667,11.4316547 13.4311111,11.4316547 13.4311111,11.3956835 C13.3955556,11.3956835 13.3244444,11.3597122 13.2888889,11.323741 C12.7911111,11.1438849 12.3288889,11 11.8666667,11 L11.6177778,11 L11.3688889,11 C10.4444444,11 9.59111111,11.1798561 8.84444444,11.5395683 C8.02666667,11.971223 7.31555556,12.5467626 6.81777778,13.3381295 C6.32,14.0935252 6.03555556,14.9568345 6,15.8561151 L6,16.0719424 C6,17.3669065 6.46222222,18.4820144 7.38666667,19.4172662 C8.34666667,20.4244604 9.59111111,20.9640288 11.0844444,21 L11.3688889,21 C12.2222222,21 13.0044444,20.8561151 13.7155556,20.5323741 C13.8933333,20.4604317 14.0711111,20.352518 14.2488889,20.2805755 C14.3555556,20.2086331 14.4266667,20.1726619 14.5333333,20.1007194 L14.6044444,20.0647482 L14.7111111,19.9928058 C14.8533333,19.8848921 14.96,19.7769784 15.1022222,19.6690647 L15.1377778,19.6330935 C15.2088889,19.5611511 15.28,19.4892086 15.3511111,19.4172662 L15.6,19.1294964 L15.7066667,19.0215827 L15.7422222,18.9496403 L15.8133333,18.8776978 C16.2044444,18.2302158 17.4133333,15.9280576 17.4133333,15.9280576 L17.4844444,15.7841727 L17.52,15.676259 C17.6977778,15.352518 17.84,15.1007194 17.9822222,14.8489209 C18.3733333,14.2733813 19.0844444,13.8417266 19.8666667,13.7697842 C21.2177778,13.6618705 22.4266667,14.5611511 22.5333333,15.7841727 C22.64,17.0071942 21.6088889,18.1223022 20.2577778,18.2302158 C19.9733333,18.2661871 19.6888889,18.2302158 19.44,18.1942446 C18.4444444,17.9784173 17.8044444,17.2589928 17.4844444,16.8992806 L16.1688889,19.3453237 C16.1688889,19.3453237 16.56,19.7769784 16.8444444,19.9568345 C17.1288889,20.1726619 17.4844444,20.352518 17.7688889,20.4964029 C18.48,20.7841727 19.2266667,20.9640288 20.08,20.9640288 L20.2577778,20.9640288 C21.7511111,20.8920863 23.1377778,20.3165468 24.0977778,19.3093525 C25.0222222,18.3741007 25.5555556,17.294964 25.5555556,16 L25.5555556,15.9640288 C25.5555556,16 25.5555556,15.9280576 25.5555556,15.8561151 L25.5555556,15.6402878 Z" id="Shape" fill="#BBCDE3"></path>
                </g>
            </g>
        </g>
    </g>
</svg>